<svg width="357" height="56" viewBox="0 0 357 56" fill="none" xmlns="http://www.w3.org/2000/svg">
<path d="M17.4051 30.4783L10.211 38.9875V54.9228H0V0.928275H10.211V27.5388H10.5978L18.256 17.4051L31.6387 0.928275H43.3968L24.5992 23.4389L44.9439 54.9228H32.799L17.4051 30.4783Z" fill="#1C2A1A"/>
<path d="M47.0893 54.9228V46.7231H54.2061V9.12802H47.0893V0.928275H71.6112V9.12802H64.4171V46.7231H71.6112V54.9228H47.0893Z" fill="#1C2A1A"/>
<path d="M94.4198 27.2294L88.8501 16.0127H88.6181V54.9228H78.9486V0.928275H90.1652L106.41 28.6218L111.98 39.8384H112.212V0.928275H121.881V54.9228H110.665L94.4198 27.2294Z" fill="#1C2A1A"/>
<path d="M351.013 12.5859C350.178 12.5859 349.41 12.4487 348.708 12.1743C348.005 11.8999 347.401 11.5047 346.897 10.9888C346.392 10.473 345.996 9.85281 345.711 9.12839C345.426 8.39299 345.283 7.56429 345.283 6.64229C345.283 5.7203 345.426 4.89708 345.711 4.17266C345.996 3.43726 346.392 2.81162 346.897 2.29574C347.401 1.77986 348.005 1.38472 348.708 1.11032C349.41 0.835913 350.178 0.698712 351.013 0.698712C351.847 0.698712 352.615 0.835913 353.318 1.11032C354.02 1.38472 354.624 1.77986 355.129 2.29574C355.634 2.81162 356.029 3.43726 356.314 4.17266C356.599 4.89708 356.742 5.7203 356.742 6.64229C356.742 7.56429 356.599 8.39299 356.314 9.12839C356.029 9.85281 355.634 10.473 355.129 10.9888C354.624 11.5047 354.02 11.8999 353.318 12.1743C352.615 12.4487 351.847 12.5859 351.013 12.5859ZM351.013 11.5322C351.671 11.5322 352.275 11.4224 352.824 11.2029C353.372 10.9724 353.844 10.665 354.24 10.2809C354.646 9.89672 354.958 9.44121 355.178 8.91435C355.409 8.3875 355.524 7.81674 355.524 7.20207V6.08251C355.524 5.47882 355.409 4.91355 355.178 4.38669C354.958 3.84886 354.646 3.38787 354.24 3.0037C353.844 2.61954 353.372 2.31769 352.824 2.09817C352.275 1.86767 351.671 1.75242 351.013 1.75242C350.354 1.75242 349.75 1.86767 349.202 2.09817C348.653 2.31769 348.175 2.61954 347.769 3.0037C347.374 3.38787 347.061 3.84886 346.831 4.38669C346.611 4.91355 346.501 5.47882 346.501 6.08251V7.20207C346.501 7.81674 346.611 8.3875 346.831 8.91435C347.061 9.44121 347.374 9.89672 347.769 10.2809C348.175 10.665 348.653 10.9724 349.202 11.2029C349.75 11.4224 350.354 11.5322 351.013 11.5322ZM351.128 10.1821C350.59 10.1821 350.107 10.0998 349.679 9.93513C349.262 9.75951 348.905 9.51804 348.609 9.21071C348.312 8.90338 348.087 8.53568 347.934 8.10761C347.78 7.66856 347.703 7.18012 347.703 6.64229C347.703 6.10446 347.78 5.62151 347.934 5.19344C348.087 4.7544 348.312 4.38121 348.609 4.07387C348.905 3.76654 349.262 3.53056 349.679 3.36591C350.107 3.1903 350.59 3.10249 351.128 3.10249C351.929 3.10249 352.571 3.27262 353.054 3.61288C353.537 3.95314 353.888 4.40316 354.108 4.96294L352.461 5.75322C352.33 5.46784 352.165 5.23735 351.967 5.06173C351.77 4.88611 351.49 4.7983 351.128 4.7983C350.766 4.7983 350.48 4.90806 350.272 5.12758C350.063 5.33613 349.959 5.62151 349.959 5.98372V7.30086C349.959 7.66307 350.063 7.95394 350.272 8.17346C350.48 8.38201 350.766 8.48628 351.128 8.48628C351.49 8.48628 351.786 8.39847 352.017 8.22286C352.247 8.03626 352.434 7.80576 352.577 7.53136L354.24 8.30518C354.119 8.55763 353.971 8.7991 353.795 9.0296C353.63 9.24912 353.422 9.4467 353.169 9.62231C352.917 9.79793 352.621 9.93513 352.28 10.0339C351.951 10.1327 351.567 10.1821 351.128 10.1821Z" fill="#1C2A1A"/>
<path d="M112.176 54.9228V0.928275H146.909V9.97894H122.387V23.0521H143.737V32.1028H122.387V54.9228H112.176Z" fill="#1C2A1A"/>
<path d="M172.883 55.8511C169.325 55.8511 166.102 55.2581 163.214 54.0719C160.326 52.8858 157.851 51.1066 155.788 48.7344C153.776 46.3621 152.204 43.4484 151.069 39.9931C149.934 36.5379 149.367 32.5154 149.367 27.9256C149.367 23.3873 149.934 19.3906 151.069 15.9354C152.204 12.4286 153.776 9.48902 155.788 7.11676C157.851 4.74451 160.326 2.96532 163.214 1.77919C166.102 0.593064 169.325 0 172.883 0C176.442 0 179.665 0.593064 182.553 1.77919C185.441 2.96532 187.916 4.74451 189.979 7.11676C192.042 9.48902 193.615 12.4286 194.698 15.9354C195.832 19.3906 196.4 23.3873 196.4 27.9256C196.4 32.5154 195.832 36.5379 194.698 39.9931C193.615 43.4484 192.042 46.3621 189.979 48.7344C187.916 51.1066 185.441 52.8858 182.553 54.0719C179.665 55.2581 176.442 55.8511 172.883 55.8511ZM172.883 46.8005C176.751 46.8005 179.82 45.5112 182.089 42.9326C184.409 40.3541 185.57 36.7442 185.57 32.1028V23.7483C185.57 19.107 184.409 15.497 182.089 12.9185C179.82 10.3399 176.751 9.05066 172.883 9.05066C169.016 9.05066 165.921 10.3399 163.601 12.9185C161.332 15.497 160.197 19.107 160.197 23.7483V32.1028C160.197 36.7442 161.332 40.3541 163.601 42.9326C165.921 45.5112 169.016 46.8005 172.883 46.8005Z" fill="#1C2A1A"/>
<path d="M213.876 54.9228H203.664V0.928275H228.032C230.507 0.928275 232.725 1.31506 234.684 2.08862C236.644 2.86218 238.294 3.99673 239.635 5.49228C241.028 6.93627 242.085 8.68967 242.807 10.7525C243.58 12.8153 243.967 15.1102 243.967 17.6372C243.967 21.3503 243.116 24.5477 241.414 27.2294C239.764 29.911 237.263 31.8192 233.911 32.9537L244.973 54.9228H233.601L223.545 34.114H213.876V54.9228ZM227.026 25.5275C228.986 25.5275 230.533 25.0118 231.667 23.9804C232.802 22.8974 233.369 21.3761 233.369 19.4164V15.858C233.369 13.8983 232.802 12.4028 231.667 11.3714C230.533 10.3399 228.986 9.82423 227.026 9.82423H213.876V25.5275H227.026Z" fill="#1C2A1A"/>
<path d="M292.706 16.1674H292.397L288.22 24.754L277.158 45.176L266.096 24.754L261.918 16.1674H261.609V54.9228H251.94V0.928275H263.466L277.312 27.3067H277.622L291.314 0.928275H302.376V54.9228H292.706V16.1674Z" fill="#1C2A1A"/>
<path d="M345.417 54.9228L341.085 41.1535H321.901L317.646 54.9228H307.281L325.382 0.928275H338.068L356.015 54.9228H345.417ZM331.648 10.211H331.261L324.376 32.4122H338.61L331.648 10.211Z" fill="#1C2A1A"/>
</svg>
