<svg width="24" height="13" viewBox="0 0 24 13" fill="none" xmlns="http://www.w3.org/2000/svg">
<path d="M-0.000734344 12.5719V-0.000108123H2.29527V0.881892H0.965266V11.6899H2.29527V12.5719H-0.000734344ZM7.34063 10.8079C6.17396 10.8079 5.31996 10.3646 4.77863 9.47789C4.24663 8.59123 3.98063 7.34989 3.98063 5.75389C3.98063 4.15789 4.24663 2.91656 4.77863 2.02989C5.31996 1.14323 6.17396 0.699892 7.34063 0.699892C8.50729 0.699892 9.35663 1.14323 9.88863 2.02989C10.43 2.91656 10.7006 4.15789 10.7006 5.75389C10.7006 7.34989 10.43 8.59123 9.88863 9.47789C9.35663 10.3646 8.50729 10.8079 7.34063 10.8079ZM7.34063 9.78589C7.72329 9.78589 8.04996 9.70656 8.32063 9.54789C8.59129 9.38923 8.81063 9.16523 8.97863 8.87589C9.14663 8.58656 9.26796 8.24589 9.34263 7.85389C9.42663 7.46189 9.46863 7.02789 9.46863 6.55189V4.95589C9.46863 4.47989 9.42663 4.04589 9.34263 3.65389C9.26796 3.26189 9.14663 2.92123 8.97863 2.63189C8.81063 2.34256 8.59129 2.11856 8.32063 1.95989C8.04996 1.80123 7.72329 1.72189 7.34063 1.72189C6.95796 1.72189 6.63129 1.80123 6.36063 1.95989C6.08996 2.11856 5.87063 2.34256 5.70263 2.63189C5.53463 2.92123 5.40863 3.26189 5.32463 3.65389C5.24996 4.04589 5.21263 4.47989 5.21263 4.95589V6.55189C5.21263 7.02789 5.24996 7.46189 5.32463 7.85389C5.40863 8.24589 5.53463 8.58656 5.70263 8.87589C5.87063 9.16523 6.08996 9.38923 6.36063 9.54789C6.63129 9.70656 6.95796 9.78589 7.34063 9.78589ZM15.7352 10.8079C14.5685 10.8079 13.7145 10.3646 13.1732 9.47789C12.6412 8.59123 12.3752 7.34989 12.3752 5.75389C12.3752 4.15789 12.6412 2.91656 13.1732 2.02989C13.7145 1.14323 14.5685 0.699892 15.7352 0.699892C16.9018 0.699892 17.7512 1.14323 18.2832 2.02989C18.8245 2.91656 19.0952 4.15789 19.0952 5.75389C19.0952 7.34989 18.8245 8.59123 18.2832 9.47789C17.7512 10.3646 16.9018 10.8079 15.7352 10.8079ZM15.7352 9.78589C16.1178 9.78589 16.4445 9.70656 16.7152 9.54789C16.9858 9.38923 17.2052 9.16523 17.3732 8.87589C17.5412 8.58656 17.6625 8.24589 17.7372 7.85389C17.8212 7.46189 17.8632 7.02789 17.8632 6.55189V4.95589C17.8632 4.47989 17.8212 4.04589 17.7372 3.65389C17.6625 3.26189 17.5412 2.92123 17.3732 2.63189C17.2052 2.34256 16.9858 2.11856 16.7152 1.95989C16.4445 1.80123 16.1178 1.72189 15.7352 1.72189C15.3525 1.72189 15.0258 1.80123 14.7552 1.95989C14.4845 2.11856 14.2652 2.34256 14.0972 2.63189C13.9292 2.92123 13.8032 3.26189 13.7192 3.65389C13.6445 4.04589 13.6072 4.47989 13.6072 4.95589V6.55189C13.6072 7.02789 13.6445 7.46189 13.7192 7.85389C13.8032 8.24589 13.9292 8.58656 14.0972 8.87589C14.2652 9.16523 14.4845 9.38923 14.7552 9.54789C15.0258 9.70656 15.3525 9.78589 15.7352 9.78589ZM23.0657 -0.000108123V12.5719H20.7697V11.6899H22.0997V0.881892H20.7697V-0.000108123H23.0657Z" fill="black"/>
</svg>
