<svg width="48" height="48" viewBox="0 0 48 48" fill="none" xmlns="http://www.w3.org/2000/svg">
<path d="M14.188 29.656V18.88H15.964V19.42H14.788V29.116H15.964V29.656H14.188ZM20.3266 28.144C18.4386 28.144 17.4946 26.7 17.4946 23.812C17.4946 20.924 18.4386 19.48 20.3266 19.48C22.2146 19.48 23.1586 20.924 23.1586 23.812C23.1586 26.7 22.2146 28.144 20.3266 28.144ZM20.3266 27.52C21.0306 27.52 21.5506 27.24 21.8866 26.68C22.2306 26.12 22.4026 25.352 22.4026 24.376V23.248C22.4026 22.272 22.2306 21.504 21.8866 20.944C21.5506 20.384 21.0306 20.104 20.3266 20.104C19.6146 20.104 19.0906 20.384 18.7546 20.944C18.4186 21.504 18.2506 22.272 18.2506 23.248V24.376C18.2506 25.352 18.4186 26.12 18.7546 26.68C19.0906 27.24 19.6146 27.52 20.3266 27.52ZM27.5219 28.144C25.6339 28.144 24.6899 26.7 24.6899 23.812C24.6899 20.924 25.6339 19.48 27.5219 19.48C29.4099 19.48 30.3539 20.924 30.3539 23.812C30.3539 26.7 29.4099 28.144 27.5219 28.144ZM27.5219 27.52C28.2259 27.52 28.7459 27.24 29.0819 26.68C29.4259 26.12 29.5979 25.352 29.5979 24.376V23.248C29.5979 22.272 29.4259 21.504 29.0819 20.944C28.7459 20.384 28.2259 20.104 27.5219 20.104C26.8099 20.104 26.2859 20.384 25.9499 20.944C25.6139 21.504 25.4459 22.272 25.4459 23.248V24.376C25.4459 25.352 25.6139 26.12 25.9499 26.68C26.2859 27.24 26.8099 27.52 27.5219 27.52ZM33.6612 18.88V29.656H31.8852V29.116H33.0612V19.42H31.8852V18.88H33.6612Z" fill="black"/>
</svg>
