<svg width="48" height="48" viewBox="0 0 48 48" fill="none" xmlns="http://www.w3.org/2000/svg">
<path d="M7.908 28.144C7.22 28.144 6.644 28.016 6.18 27.76C5.724 27.496 5.332 27.148 5.004 26.716L5.544 26.272C5.84 26.664 6.172 26.968 6.54 27.184C6.916 27.4 7.38 27.508 7.932 27.508C8.58 27.508 9.076 27.356 9.42 27.052C9.772 26.74 9.948 26.308 9.948 25.756C9.948 25.244 9.8 24.868 9.504 24.628C9.208 24.388 8.792 24.212 8.256 24.1L7.512 23.944C6.712 23.784 6.132 23.516 5.772 23.14C5.412 22.764 5.232 22.284 5.232 21.7C5.232 21.332 5.296 21.012 5.424 20.74C5.552 20.46 5.732 20.228 5.964 20.044C6.204 19.86 6.488 19.72 6.816 19.624C7.152 19.528 7.52 19.48 7.92 19.48C8.544 19.48 9.072 19.592 9.504 19.816C9.936 20.04 10.292 20.356 10.572 20.764L10.032 21.16C9.8 20.824 9.508 20.568 9.156 20.392C8.812 20.208 8.388 20.116 7.884 20.116C7.284 20.116 6.808 20.248 6.456 20.512C6.112 20.768 5.94 21.156 5.94 21.676C5.94 22.172 6.096 22.536 6.408 22.768C6.72 23 7.136 23.168 7.656 23.272L8.4 23.428C9.232 23.612 9.816 23.896 10.152 24.28C10.488 24.664 10.656 25.144 10.656 25.72C10.656 26.488 10.412 27.084 9.924 27.508C9.436 27.932 8.764 28.144 7.908 28.144ZM14.4163 28L11.6083 19.624H12.3883L14.8603 27.268H14.9083L17.4043 19.624H18.1603L15.3283 28H14.4163ZM22.6973 29.656V18.88H23.2853V29.656H22.6973Z" fill="black"/>
<path d="M28.7271 28V19.624H33.6231V20.26H29.4471V23.428H33.4191V24.064H29.4471V27.364H33.6231V28H28.7271ZM36.3497 20.608H36.3137V28H35.6177V19.624H36.5177L40.9217 27.016H40.9577V19.624H41.6537V28H40.7537L36.3497 20.608Z" fill="#8A8A8A"/>
</svg>
