<svg width="636" height="203" viewBox="0 0 636 203" fill="none" xmlns="http://www.w3.org/2000/svg">
<path d="M41.4943 104.289L28.9244 119.157V147H11.0832V52.6578H28.9244V99.1531H29.6002L42.9811 81.4471L66.3639 52.6578H86.9083L54.0643 91.9896L89.6115 147H68.3913L41.4943 104.289ZM93.3601 147V132.673H105.795V66.9849H93.3601V52.6578H136.206V66.9849H123.636V132.673H136.206V147H93.3601ZM176.058 98.6125L166.327 79.0142H165.921V147H149.026V52.6578H168.625L197.008 101.045L206.74 120.644H207.145V52.6578H224.04V147H204.442L176.058 98.6125Z" fill="#1E1E1E"/>
<path d="M207.083 147V52.6578H267.77V68.4716H224.924V91.3138H262.229V107.128H224.924V147H207.083ZM313.155 148.622C306.937 148.622 301.306 147.586 296.26 145.513C291.214 143.441 286.889 140.332 283.284 136.187C279.77 132.042 277.022 126.951 275.039 120.914C273.057 114.877 272.066 107.848 272.066 99.8289C272.066 91.8995 273.057 84.9162 275.039 78.879C277.022 72.7517 279.77 67.6156 283.284 63.4707C286.889 59.3258 291.214 56.2171 296.26 54.1446C301.306 52.0721 306.937 51.0359 313.155 51.0359C319.372 51.0359 325.004 52.0721 330.05 54.1446C335.096 56.2171 339.421 59.3258 343.025 63.4707C346.63 67.6156 349.378 72.7517 351.27 78.879C353.252 84.9162 354.244 91.8995 354.244 99.8289C354.244 107.848 353.252 114.877 351.27 120.914C349.378 126.951 346.63 132.042 343.025 136.187C339.421 140.332 335.096 143.441 330.05 145.513C325.004 147.586 319.372 148.622 313.155 148.622ZM313.155 132.808C319.913 132.808 325.274 130.555 329.239 126.05C333.294 121.545 335.321 115.237 335.321 107.128V92.5302C335.321 84.4206 333.294 78.1131 329.239 73.6077C325.274 69.1024 319.913 66.8497 313.155 66.8497C306.397 66.8497 300.99 69.1024 296.935 73.6077C292.971 78.1131 290.988 84.4206 290.988 92.5302V107.128C290.988 115.237 292.971 121.545 296.935 126.05C300.99 130.555 306.397 132.808 313.155 132.808ZM384.778 147H366.937V52.6578H409.513C413.838 52.6578 417.712 53.3336 421.137 54.6852C424.561 56.0369 427.444 58.0192 429.787 60.6323C432.22 63.1553 434.067 66.219 435.328 69.8232C436.68 73.4275 437.356 77.4373 437.356 81.8525C437.356 88.3403 435.869 93.9269 432.896 98.6125C430.012 103.298 425.642 106.632 419.785 108.614L439.113 147H419.244L401.673 110.642H384.778V147ZM407.756 95.6389C411.18 95.6389 413.883 94.7379 415.865 92.9357C417.848 91.0435 418.839 88.3853 418.839 84.9612V78.7439C418.839 75.3198 417.848 72.7067 415.865 70.9045C413.883 69.1024 411.18 68.2013 407.756 68.2013H384.778V95.6389H407.756ZM522.516 79.2845H521.975L514.676 94.2873L495.348 129.97L476.02 94.2873L468.722 79.2845H468.181V147H451.286V52.6578H471.425L495.619 98.7476H496.159L520.083 52.6578H539.411V147H522.516V79.2845ZM614.615 147L607.046 122.941H573.526L566.092 147H547.981L579.608 52.6578H601.775L633.132 147H614.615ZM590.556 68.8771H589.88L577.851 107.668H602.721L590.556 68.8771Z" fill="#1E1E1E"/>
<path d="M620.392 73.3452C618.934 73.3452 617.592 73.1055 616.364 72.626C615.137 72.1466 614.082 71.4562 613.2 70.5548C612.318 69.6534 611.627 68.5699 611.129 67.3041C610.63 66.0192 610.381 64.5712 610.381 62.9603C610.381 61.3493 610.63 59.911 611.129 58.6452C611.627 57.3603 612.318 56.2671 613.2 55.3657C614.082 54.4644 615.137 53.774 616.364 53.2945C617.592 52.8151 618.934 52.5753 620.392 52.5753C621.849 52.5753 623.192 52.8151 624.419 53.2945C625.647 53.774 626.701 54.4644 627.584 55.3657C628.466 56.2671 629.156 57.3603 629.655 58.6452C630.153 59.911 630.403 61.3493 630.403 62.9603C630.403 64.5712 630.153 66.0192 629.655 67.3041C629.156 68.5699 628.466 69.6534 627.584 70.5548C626.701 71.4562 625.647 72.1466 624.419 72.626C623.192 73.1055 621.849 73.3452 620.392 73.3452ZM620.392 71.5041C621.542 71.5041 622.597 71.3123 623.556 70.9288C624.515 70.526 625.34 69.989 626.03 69.3178C626.74 68.6466 627.286 67.8507 627.67 66.9301C628.073 66.0096 628.274 65.0123 628.274 63.9384V61.9822C628.274 60.9274 628.073 59.9397 627.67 59.0192C627.286 58.0794 626.74 57.274 626.03 56.6027C625.34 55.9315 624.515 55.4041 623.556 55.0205C622.597 54.6178 621.542 54.4164 620.392 54.4164C619.241 54.4164 618.186 54.6178 617.227 55.0205C616.268 55.4041 615.434 55.9315 614.725 56.6027C614.034 57.274 613.488 58.0794 613.085 59.0192C612.701 59.9397 612.51 60.9274 612.51 61.9822V63.9384C612.51 65.0123 612.701 66.0096 613.085 66.9301C613.488 67.8507 614.034 68.6466 614.725 69.3178C615.434 69.989 616.268 70.526 617.227 70.9288C618.186 71.3123 619.241 71.5041 620.392 71.5041ZM620.593 69.1452C619.653 69.1452 618.81 69.0014 618.062 68.7137C617.333 68.4068 616.71 67.9849 616.192 67.4479C615.674 66.911 615.281 66.2685 615.012 65.5205C614.744 64.7534 614.61 63.9 614.61 62.9603C614.61 62.0205 614.744 61.1767 615.012 60.4288C615.281 59.6616 615.674 59.0096 616.192 58.4726C616.71 57.9356 617.333 57.5233 618.062 57.2356C618.81 56.9288 619.653 56.7753 620.593 56.7753C621.993 56.7753 623.115 57.0726 623.959 57.6671C624.803 58.2616 625.416 59.0479 625.8 60.026L622.923 61.4068C622.693 60.9082 622.405 60.5055 622.06 60.1986C621.715 59.8918 621.226 59.7384 620.593 59.7384C619.96 59.7384 619.462 59.9301 619.097 60.3137C618.733 60.6781 618.551 61.1767 618.551 61.8096V64.111C618.551 64.7438 618.733 65.2521 619.097 65.6356C619.462 66 619.96 66.1822 620.593 66.1822C621.226 66.1822 621.744 66.0288 622.147 65.7219C622.549 65.3959 622.875 64.9931 623.125 64.5137L626.03 65.8658C625.819 66.3068 625.56 66.7288 625.253 67.1315C624.966 67.5151 624.601 67.8603 624.16 68.1671C623.719 68.474 623.201 68.7137 622.607 68.8863C622.032 69.0589 621.36 69.1452 620.593 69.1452Z" fill="#1E1E1E"/>
</svg>
