<svg width="44" height="13" viewBox="0 0 44 13" fill="none" xmlns="http://www.w3.org/2000/svg">
<path d="M3.45811 10.8079C2.66478 10.8079 1.98811 10.6586 1.42811 10.3599C0.868109 10.0519 0.392109 9.63189 0.000109419 9.09989L0.868109 8.37189C1.21344 8.82923 1.59611 9.17923 2.01611 9.42189C2.43611 9.65523 2.93078 9.77189 3.50011 9.77189C4.20011 9.77189 4.73211 9.60389 5.09611 9.26789C5.46944 8.93189 5.65611 8.48389 5.65611 7.92389C5.65611 7.45723 5.51611 7.09789 5.23611 6.84589C4.95611 6.59389 4.49411 6.39323 3.85011 6.24389L3.05211 6.06189C2.15611 5.85656 1.47011 5.54856 0.994109 5.13789C0.527443 4.71789 0.294109 4.12989 0.294109 3.37389C0.294109 2.94456 0.373443 2.56189 0.532109 2.22589C0.690776 1.88989 0.910109 1.60989 1.19011 1.38589C1.47944 1.16189 1.82011 0.993892 2.21211 0.881892C2.61344 0.760559 3.05211 0.699892 3.52811 0.699892C4.26544 0.699892 4.89544 0.835225 5.41811 1.10589C5.95011 1.37656 6.39811 1.77323 6.76211 2.29589L5.88011 2.93989C5.60944 2.56656 5.28278 2.27256 4.90011 2.05789C4.51744 1.84323 4.04144 1.73589 3.47211 1.73589C2.84678 1.73589 2.35211 1.87123 1.98811 2.14189C1.63344 2.40323 1.45611 2.79989 1.45611 3.33189C1.45611 3.79856 1.60544 4.15323 1.90411 4.39589C2.21211 4.62923 2.67411 4.81589 3.29011 4.95589L4.08811 5.13789C5.04944 5.35256 5.74478 5.67923 6.17411 6.11789C6.60344 6.55656 6.81811 7.13989 6.81811 7.86789C6.81811 8.31589 6.73878 8.72189 6.58011 9.08589C6.43078 9.44989 6.21144 9.75789 5.92211 10.0099C5.63278 10.2619 5.27811 10.4579 4.85811 10.5979C4.44744 10.7379 3.98078 10.8079 3.45811 10.8079ZM11.0749 10.6399L7.82688 0.867892H9.08688L10.6969 5.79589L11.7749 9.46389H11.8449L12.9509 5.79589L14.5749 0.867892H15.7929L12.5029 10.6399H11.0749ZM21.1087 12.5719V-0.000108123H22.0607V12.5719H21.1087Z" fill="black"/>
<path d="M28.3997 10.6399V0.867892H34.3637V1.90389H29.5757V5.17989H34.0837V6.21589H29.5757V9.60389H34.3637V10.6399H28.3997ZM38.9278 4.67589L37.7518 2.50589H37.7098V10.6399H36.5618V0.867892H37.9198L41.4898 6.83189L42.6658 9.00189H42.7078V0.867892H43.8558V10.6399H42.4978L38.9278 4.67589Z" fill="#8A8A8A"/>
</svg>
